<svg
        xmlns="http://www.w3.org/2000/svg"
        xmlns:xlink="http://www.w3.org/1999/xlink"
        width="23px" height="22px">
    <path fill-rule="evenodd"  fill="rgb(185, 148, 3)"
          d="M17.162,1.828 C16.056,2.932 16.056,4.722 17.162,5.826 C18.268,6.930 20.062,6.930 21.169,5.826 L22.789,4.208 C22.913,4.673 23.000,5.151 23.000,5.654 C23.000,8.777 20.463,11.309 17.334,11.309 C16.823,11.309 16.338,11.220 15.867,11.094 C15.852,11.110 15.847,11.132 15.831,11.149 L5.814,21.145 C4.708,22.249 2.914,22.249 1.808,21.145 C0.702,20.041 0.702,18.251 1.808,17.146 L11.824,7.150 C11.841,7.133 11.865,7.129 11.882,7.112 C11.756,6.644 11.668,6.162 11.668,5.654 C11.668,2.531 14.205,-0.000 17.334,-0.000 C17.838,-0.000 18.318,0.087 18.783,0.210 L17.162,1.828 ZM3.877,18.377 C3.486,18.377 3.169,18.694 3.169,19.084 C3.169,19.475 3.486,19.791 3.877,19.791 C4.268,19.791 4.585,19.475 4.585,19.084 C4.585,18.694 4.268,18.377 3.877,18.377 Z"/>
</svg>