<svg
        xmlns="http://www.w3.org/2000/svg"
        xmlns:xlink="http://www.w3.org/1999/xlink"
        width="159px" height="133px">
    <path fill-rule="evenodd"  fill-opacity="0.902" fill="rgb(188, 125, 0)"
          d="M158.522,15.312 L143.705,30.625 C143.705,30.625 143.705,29.238 143.705,33.178 C143.705,35.977 143.269,38.650 142.638,41.246 C142.293,62.313 135.800,90.248 109.132,112.297 C56.676,155.668 0.476,117.402 0.476,117.402 C44.926,117.402 44.926,102.088 44.926,102.088 C35.049,102.088 15.293,81.671 15.293,81.671 C20.232,86.775 30.110,81.671 30.110,81.671 C5.415,66.357 5.415,51.044 5.415,51.044 C10.354,56.148 20.232,51.044 20.232,51.044 C-4.463,30.625 10.354,5.103 10.354,5.103 C15.293,30.625 79.499,40.834 79.499,40.834 L80.316,40.412 C79.812,38.078 79.499,33.118 79.499,30.625 C79.499,12.302 93.872,-0.001 111.602,-0.001 C121.360,-0.001 129.996,4.595 135.883,11.698 L138.766,10.208 L153.583,-0.001 L143.705,20.417 L158.522,15.312 Z"/>
</svg>